<mxfile host="app.diagrams.net" modified="2023-09-25T08:01:46.660Z" agent="Mozilla/5.0 (X11; Ubuntu; Linux x86_64; rv:109.0) Gecko/20100101 Firefox/113.0" version="21.7.4" etag="_EzCf-Ol42RsebRyGwQW" type="github">
  <diagram name="Page-1" id="L49XobB0nV_8DZt76FK4">
    <mxGraphModel>
      <root>
        <mxCell id="0" />
        <mxCell id="1" parent="0" />
      </root>
    </mxGraphModel>
  </diagram>
</mxfile>
